<svg width="180" height="180" viewBox="0 0 180 180" fill="none" xmlns="http://www.w3.org/2000/svg">
  <rect width="180" height="180" rx="40" fill="#F8FBFF"/>
  <path d="M28 95C37 47 78 23 116 37C149 49 158 84 139 111C119 140 77 145 47 124" stroke="url(#loopA)" stroke-width="20" stroke-linecap="round"/>
  <path d="M32 80C63 116 113 125 146 65" stroke="url(#loopB)" stroke-width="18" stroke-linecap="round"/>
  <circle cx="78" cy="93" r="31" fill="white" stroke="#D8E7FF" stroke-width="3"/>
  <path d="M51 90C66 77 88 73 108 84" stroke="#F3132E" stroke-width="4" stroke-linecap="round"/>
  <path d="M55 107C73 96 93 97 111 111" stroke="#1EB65B" stroke-width="4" stroke-linecap="round"/>
  <path d="M65 70C80 66 96 69 108 79" stroke="#146BFF" stroke-width="4" stroke-linecap="round"/>
  <defs>
    <linearGradient id="loopA" x1="31" y1="54" x2="146" y2="129" gradientUnits="userSpaceOnUse">
      <stop stop-color="#F3132E"/>
      <stop offset="0.38" stop-color="#063EBA"/>
      <stop offset="0.72" stop-color="#0789FF"/>
      <stop offset="1" stop-color="#19B65B"/>
    </linearGradient>
    <linearGradient id="loopB" x1="30" y1="102" x2="151" y2="61" gradientUnits="userSpaceOnUse">
      <stop stop-color="#FFC21A"/>
      <stop offset="0.22" stop-color="#F3132E"/>
      <stop offset="0.6" stop-color="#005BFF"/>
      <stop offset="1" stop-color="#008CFF"/>
    </linearGradient>
  </defs>
</svg>
